<?xml version="1.0" standalone="no"?>
<!DOCTYPE svg PUBLIC "-//W3C//DTD SVG 20010904//EN"
 "http://www.w3.org/TR/2001/REC-SVG-20010904/DTD/svg10.dtd">
<svg version="1.0" xmlns="http://www.w3.org/2000/svg"
 width="1024.000000pt" height="1024.000000pt" viewBox="0 0 1024.000000 1024.000000"
 preserveAspectRatio="xMidYMid meet">

<g transform="translate(0.000000,1024.000000) scale(0.100000,-0.100000)"
fill="#000000" stroke="none">
<path d="M4286 8708 c-29 -62 -98 -203 -151 -313 -117 -240 -208 -430 -242
-505 -14 -30 -45 -97 -69 -148 -24 -51 -44 -94 -44 -96 0 -5 -66 -150 -88
-193 -9 -18 -20 -33 -24 -33 -4 0 -12 19 -18 43 -6 23 -17 68 -25 100 -8 31
-22 84 -30 117 -23 92 -42 164 -74 285 -16 61 -34 136 -40 168 -12 68 -27 101
-34 77 -8 -25 -36 -172 -43 -225 -3 -27 -12 -77 -20 -110 -8 -33 -14 -82 -14
-109 0 -46 -3 -51 -69 -120 -123 -127 -151 -159 -258 -291 -341 -424 -550
-860 -647 -1355 -48 -241 -48 -711 0 -968 34 -186 97 -405 164 -572 25 -64
205 -427 221 -446 13 -15 -18 -75 -174 -339 -138 -234 -197 -335 -197 -340 0
-2 26 5 58 16 31 11 86 28 122 39 36 10 148 44 250 75 102 30 205 62 230 69
25 8 79 24 120 36 41 12 102 31 134 41 33 11 82 26 110 34 28 7 107 30 176 50
213 62 363 105 405 115 22 5 94 26 160 46 66 20 136 38 156 41 l37 5 16 -74
c10 -40 28 -118 40 -173 13 -55 31 -131 40 -170 8 -38 25 -110 36 -160 11 -49
28 -121 37 -160 8 -38 28 -124 44 -190 15 -66 38 -160 49 -210 54 -229 236
-964 271 -1095 11 -41 27 -102 34 -135 8 -33 31 -118 51 -190 20 -71 39 -142
41 -158 3 -15 8 -27 12 -27 9 0 34 56 66 146 52 149 147 405 207 559 11 28 23
61 28 75 5 14 17 48 28 75 11 28 41 106 67 175 26 69 55 145 65 170 10 25 36
92 58 150 145 376 292 732 372 905 26 55 62 136 100 225 18 41 50 113 71 158
22 46 39 85 39 87 0 21 388 798 551 1103 46 85 104 193 167 312 25 47 60 111
78 143 19 32 34 60 34 62 0 2 23 42 50 90 28 48 50 88 50 90 0 2 23 41 50 88
28 47 50 88 50 93 0 4 7 16 16 26 16 16 15 18 0 24 -9 4 -54 1 -99 -5 -45 -6
-129 -18 -187 -26 -58 -8 -186 -25 -285 -39 -99 -14 -214 -31 -255 -36 -41 -6
-88 -13 -105 -17 -28 -5 -26 -3 20 33 28 21 120 85 205 141 85 56 181 121 214
145 32 24 99 74 150 111 50 37 123 90 161 116 39 27 122 87 185 135 63 47 118
86 121 86 8 0 42 -76 95 -215 59 -157 72 -200 95 -320 70 -367 77 -656 24
-970 -44 -253 -184 -632 -301 -811 -21 -32 -43 -68 -49 -79 -43 -76 -78 -124
-87 -118 -7 3 -8 1 -4 -6 12 -19 -114 -177 -266 -333 -38 -38 -68 -76 -68 -84
0 -8 7 -31 15 -51 25 -61 18 -68 -26 -29 -40 37 -41 37 -67 20 -15 -10 -32
-22 -38 -28 -7 -6 -33 -27 -59 -46 -25 -19 -61 -47 -78 -61 -41 -34 -204 -128
-338 -195 -116 -58 -106 -45 -170 -209 -22 -55 -47 -114 -54 -132 -21 -44 -20
-67 3 -58 9 4 51 19 92 35 309 116 565 261 805 456 114 93 307 288 380 384 27
36 57 74 67 84 27 29 163 236 199 302 55 102 116 227 144 294 14 36 33 79 41
97 8 17 14 37 14 45 0 8 4 18 8 24 8 8 27 65 67 204 33 113 71 304 85 425 35
303 16 626 -56 925 -47 193 -122 411 -191 553 -24 48 -43 91 -43 95 0 4 61 66
135 136 75 71 134 131 131 133 -5 5 -40 -11 -261 -115 -113 -53 -592 -292
-625 -311 -26 -15 -92 -42 -96 -39 -2 3 126 155 329 387 79 91 283 331 371
436 22 27 70 83 106 125 75 86 348 410 400 474 72 89 246 292 282 332 22 22
45 50 54 62 14 20 13 22 -8 26 -72 14 -586 48 -998 66 -278 12 -1374 12 -1600
0 -532 -28 -742 -44 -990 -75 -189 -23 -277 -29 -284 -16 -4 6 -26 75 -50 153
-24 79 -49 154 -54 168 -6 14 -16 46 -22 73 -7 26 -16 47 -21 47 -5 0 -33 -51
-63 -112z m2836 -567 l107 -6 -217 -267 c-346 -426 -597 -751 -777 -1009 -119
-170 -129 -183 -237 -349 -143 -218 -173 -265 -183 -285 -11 -20 -26 -44 -70
-115 -37 -59 -131 -221 -165 -285 -18 -33 -36 -64 -40 -70 -7 -9 -50 -86 -140
-250 -16 -27 -46 -83 -69 -124 -38 -68 -49 -101 -36 -101 3 0 40 9 83 19 99
24 203 46 322 66 52 9 129 23 170 30 41 7 131 20 200 29 69 9 181 23 249 32
67 8 124 14 126 12 2 -2 -22 -46 -52 -98 -54 -93 -196 -339 -293 -510 -60
-105 -240 -465 -310 -620 -196 -430 -385 -904 -580 -1450 -63 -177 -60 -170
-77 -170 -8 0 -12 -4 -9 -8 3 -5 -6 -48 -19 -98 -25 -98 -27 -96 -44 31 -5 39
-6 75 -2 80 3 6 6 13 6 17 0 15 15 20 15 5 0 -24 16 -29 35 -11 10 11 14 25
11 40 -9 36 2 29 13 -9 8 -29 9 -29 10 -7 1 14 -7 36 -16 49 -9 14 -12 21 -6
18 13 -8 21 46 18 111 -1 27 2 41 9 39 7 -3 12 36 14 119 1 68 -1 124 -6 124
-5 0 -9 124 -9 283 1 155 -1 327 -4 382 -2 55 0 114 4 130 5 18 4 25 -1 17 -6
-9 -9 18 -10 70 -2 232 -6 316 -15 311 -6 -4 -7 10 -2 38 7 45 7 227 -1 240
-2 4 2 9 8 12 10 3 10 7 -1 21 -12 14 -12 16 3 10 18 -7 56 21 56 42 0 7 5 16
12 20 7 5 8 3 3 -6 -6 -9 -4 -11 4 -6 7 5 10 14 7 21 -2 7 2 16 10 19 10 4 13
1 9 -7 -4 -6 3 -1 14 12 24 26 21 41 -4 21 -20 -17 -19 -1 2 22 20 22 12 33
-14 19 -24 -13 -171 -61 -189 -61 -8 0 -40 -8 -71 -19 -65 -21 -256 -57 -348
-66 -79 -8 -426 -79 -540 -111 -49 -14 -109 -27 -132 -31 -26 -3 -40 -10 -36
-16 4 -6 0 -8 -10 -4 -24 9 -78 -3 -70 -16 3 -6 1 -7 -6 -3 -7 4 -19 5 -29 1
-14 -5 -14 -7 -2 -16 11 -8 10 -9 -8 -4 -27 8 -92 -12 -110 -34 -8 -9 -11 -10
-7 -3 7 15 4 15 -29 2 -17 -6 -26 -6 -26 1 0 10 72 140 116 210 23 38 91 158
164 294 24 44 51 91 60 105 10 14 59 106 110 205 52 99 110 212 131 250 20 39
52 99 71 135 19 36 54 101 78 145 92 169 157 291 164 305 4 8 12 24 19 35 7
11 27 47 46 80 19 33 54 90 78 128 24 37 43 69 43 72 0 3 -15 5 -32 5 -60 0
-917 -95 -1045 -116 -24 -3 -43 -3 -43 0 0 7 11 31 90 201 23 50 50 113 60
140 16 46 47 117 105 240 13 28 49 103 79 169 31 65 56 120 56 122 0 2 25 57
56 121 58 124 66 139 134 293 24 52 60 132 81 178 22 46 39 85 39 88 0 3 16
39 35 80 19 41 35 78 35 82 0 4 7 15 15 26 11 15 39 21 152 32 642 64 1014 91
1423 103 319 10 1033 11 1182 2z m426 -241 c-1 -5 -46 -62 -99 -127 -199 -243
-415 -510 -449 -553 -91 -117 -430 -534 -493 -605 -73 -84 -116 -126 -181
-178 -36 -29 -38 -29 -26 -6 60 114 435 636 734 1019 272 350 340 430 371 435
17 2 53 8 80 13 69 13 67 13 63 2z m-4188 -958 l0 -283 -76 -162 c-42 -89 -98
-209 -125 -265 -27 -57 -49 -105 -49 -107 0 -2 -21 -47 -46 -102 -26 -54 -50
-111 -55 -127 l-8 -28 47 6 c209 27 544 64 742 81 228 19 223 20 215 -5 -3
-10 -68 -147 -144 -302 -165 -338 -215 -442 -275 -570 -66 -141 -389 -786
-448 -896 l-51 -95 -15 29 c-8 16 -20 36 -28 44 -25 29 -174 330 -214 430 -52
135 -118 355 -130 438 -46 297 -52 377 -46 562 10 314 28 411 134 720 70 205
125 328 196 444 35 56 75 125 90 155 15 30 41 71 59 92 18 20 57 70 87 110 79
104 120 144 131 127 5 -7 9 -140 9 -296z m1665 -2442 c3 -6 -1 -7 -9 -4 -18 7
-21 14 -7 14 6 0 13 -4 16 -10z m-67 -60 c0 -19 -4 -30 -13 -30 -8 0 -26 -11
-41 -25 -20 -19 -30 -22 -35 -13 -6 9 -32 4 -106 -19 -54 -18 -125 -38 -158
-47 -87 -21 -442 -117 -730 -196 -440 -122 -535 -147 -535 -142 0 13 45 74 67
92 14 11 22 20 18 20 -4 0 5 14 19 31 14 17 26 34 26 37 0 4 11 12 23 18 18 8
24 8 24 -3 0 -7 -4 -13 -8 -13 -5 0 -18 -10 -29 -22 l-21 -23 23 -6 c13 -3 29
-1 37 5 12 9 13 8 6 -3 -6 -10 -4 -13 6 -9 111 41 402 122 709 198 230 57 619
140 657 140 11 0 28 9 39 19 10 11 19 20 20 20 1 1 1 -12 2 -29z m-551 -66
c-3 -3 -12 -4 -19 -1 -8 3 -5 6 6 6 11 1 17 -2 13 -5z m-807 -13 c0 -5 -9 -19
-20 -32 l-20 -24 17 32 c19 34 23 39 23 24z m1323 -56 c-3 -9 -8 -14 -10 -11
-3 3 -2 9 2 15 9 16 15 13 8 -4z m-1373 -54 c0 -4 -6 -8 -14 -8 -8 0 -12 6 -9
14 5 13 23 9 23 -6z m1357 -13 c-3 -7 -5 -2 -5 12 0 14 2 19 5 13 2 -7 2 -19
0 -25z m40 -60 c-2 -13 -4 -3 -4 22 0 25 2 35 4 23 2 -13 2 -33 0 -45z m-1437
17 c-7 -14 -17 -25 -21 -25 -5 0 0 13 9 29 20 36 31 32 12 -4z m1407 -72 c-3
-10 -5 -4 -5 12 0 17 2 24 5 18 2 -7 2 -21 0 -30z m40 -35 c-3 -7 -5 -2 -5 12
0 14 2 19 5 13 2 -7 2 -19 0 -25z m2 -222 c1 -55 -1 -97 -4 -94 -9 8 -31 220
-26 243 9 46 30 -54 30 -149z m18 -298 c-3 -7 -5 -2 -5 12 0 14 2 19 5 13 2
-7 2 -19 0 -25z m40 -200 c-3 -8 -6 -5 -6 6 -1 11 2 17 5 13 3 -3 4 -12 1 -19z
m-10 -110 c-3 -8 -6 -5 -6 6 -1 11 2 17 5 13 3 -3 4 -12 1 -19z m20 -50 c-3
-7 -5 -2 -5 12 0 14 2 19 5 13 2 -7 2 -19 0 -25z m0 -320 c-3 -8 -6 -5 -6 6
-1 11 2 17 5 13 3 -3 4 -12 1 -19z m10 -90 c-2 -13 -4 -5 -4 17 -1 22 1 32 4
23 2 -10 2 -28 0 -40z"/>
<path d="M5018 6733 c7 -3 16 -2 19 1 4 3 -2 6 -13 5 -11 0 -14 -3 -6 -6z"/>
<path d="M4795 6718 c-38 -5 -99 -12 -135 -15 -63 -7 -64 -7 -25 -14 26 -4 16
-5 -30 -3 -48 3 -65 1 -55 -6 11 -7 5 -10 -23 -10 -21 0 -45 -7 -54 -15 -8 -9
-23 -13 -34 -10 -11 4 -33 -4 -56 -19 -21 -14 -43 -26 -50 -26 -7 0 -13 -4
-13 -10 0 -6 -47 -10 -120 -10 -66 0 -120 -4 -120 -9 0 -12 -52 0 -68 16 -16
16 -29 17 -37 3 -3 -5 2 -10 12 -10 10 -1 0 -7 -22 -15 -48 -18 -45 -17 -45
-6 0 5 8 11 18 14 9 2 2 4 -16 4 -27 0 -31 -3 -27 -18 9 -29 -5 -43 -21 -22
-12 17 -13 17 -14 1 0 -10 5 -18 10 -18 6 0 10 -7 10 -15 0 -8 -5 -15 -12 -15
-6 0 -8 -3 -4 -7 4 -5 14 0 21 10 9 12 15 15 20 7 4 -6 -2 -21 -13 -33 -20
-21 -22 -25 -22 -48 0 -5 -4 -7 -10 -4 -5 3 -10 1 -10 -5 0 -7 -7 -9 -16 -6
-8 3 -12 2 -9 -4 3 -5 27 -7 53 -5 37 4 43 3 27 -5 -18 -9 -17 -10 5 -5 14 3
54 10 89 16 36 5 91 16 123 25 32 8 73 14 91 13 40 -2 287 8 424 17 56 4 100
11 97 15 -3 5 5 9 18 9 15 0 39 16 63 40 24 25 47 39 59 38 10 -2 21 3 24 11
3 9 0 11 -8 6 -8 -5 -11 -3 -8 6 2 8 14 18 26 24 12 5 22 13 22 17 0 5 7 8 15
8 8 0 12 6 9 14 -3 7 7 23 22 35 26 21 27 22 8 35 -10 8 -21 12 -24 9 -3 -3 1
-8 8 -10 17 -6 15 -23 -3 -23 -8 0 -15 6 -15 14 0 26 -35 29 -155 14z"/>
<path d="M4378 6643 c7 -3 16 -2 19 1 4 3 -2 6 -13 5 -11 0 -14 -3 -6 -6z"/>
<path d="M4050 6590 c0 -5 7 -10 15 -10 8 0 15 5 15 10 0 6 -7 10 -15 10 -8 0
-15 -4 -15 -10z"/>
<path d="M4834 6518 l-19 -23 23 19 c21 18 27 26 19 26 -2 0 -12 -10 -23 -22z"/>
<path d="M5152 3785 c0 -16 2 -22 5 -12 2 9 2 23 0 30 -3 6 -5 -1 -5 -18z"/>
<path d="M5171 3534 c0 -11 3 -14 6 -6 3 7 2 16 -1 19 -3 4 -6 -2 -5 -13z"/>
<path d="M5172 3460 c0 -14 2 -19 5 -12 2 6 2 18 0 25 -3 6 -5 1 -5 -13z"/>
<path d="M5171 3264 c0 -11 3 -14 6 -6 3 7 2 16 -1 19 -3 4 -6 -2 -5 -13z"/>
<path d="M5071 2604 c0 -11 3 -14 6 -6 3 7 2 16 -1 19 -3 4 -6 -2 -5 -13z"/>
<path d="M2661 5471 c0 -20 3 -30 6 -22 5 11 7 11 14 0 5 -9 9 -10 9 -2 0 6 9
9 23 6 21 -4 21 -4 3 11 -10 8 -15 19 -12 24 3 5 -5 12 -19 14 -23 5 -25 2
-24 -31z"/>
<path d="M2720 5484 c0 -2 9 -8 20 -14 11 -6 20 -7 20 -2 0 6 -9 12 -20 15
-11 3 -20 3 -20 1z"/>
<path d="M2780 5456 c0 -2 7 -7 16 -10 8 -3 12 -2 9 4 -6 10 -25 14 -25 6z"/>
<path d="M2711 5344 c0 -11 3 -14 6 -6 3 7 2 16 -1 19 -3 4 -6 -2 -5 -13z"/>
<path d="M2691 5294 c0 -11 3 -14 6 -6 3 7 2 16 -1 19 -3 4 -6 -2 -5 -13z"/>
<path d="M7046 4067 c3 -10 9 -15 12 -12 3 3 0 11 -7 18 -10 9 -11 8 -5 -6z"/>
<path d="M6910 3899 c0 -5 5 -7 10 -4 6 3 10 8 10 11 0 2 -4 4 -10 4 -5 0 -10
-5 -10 -11z"/>
<path d="M3507 3471 c-87 -27 -161 -51 -164 -55 -22 -21 318 -260 517 -364
209 -109 464 -212 481 -195 7 7 3 40 -11 99 -11 49 -28 119 -37 156 -15 67
-16 67 -62 84 -88 33 -361 186 -453 255 -51 38 -97 69 -103 68 -5 0 -81 -22
-168 -48z"/>
</g>
</svg>
